{
    "asset" : {
        "generator" : "Khronos glTF Blender I/O v1.3.48",
        "version" : "2.0"
    },
    "scene" : 0,
    "scenes" : [
        {
            "name" : "Scene",
            "nodes" : [
                1
            ]
        }
    ],
    "nodes" : [
        {
            "mesh" : 0,
            "name" : "First Stage - Falcon 9",
            "rotation" : [
                -0.2968553900718689,
                0.6417763233184814,
                -0.29685547947883606,
                0.6417763233184814
            ],
            "scale" : [
                0.09999999403953552,
                0.10252691805362701,
                0.09999999403953552
            ],
            "translation" : [
                -0.07573280483484268,
                -2.246742010116577,
                2.7357802391052246
            ]
        },
        {
            "children" : [
                0
            ],
            "name" : "Falcon 9",
            "rotation" : [
                0.5,
                -0.4999999701976776,
                0.5000000596046448,
                0.4999999403953552
            ]
        }
    ],
    "materials" : [
        {
            "doubleSided" : true,
            "emissiveFactor" : [
                0,
                0,
                0
            ],
            "name" : "White",
            "pbrMetallicRoughness" : {
                "baseColorFactor" : [
                    0.800000011920929,
                    0.800000011920929,
                    0.800000011920929,
                    1
                ],
                "metallicFactor" : 0,
                "roughnessFactor" : 0.5
            }
        },
        {
            "doubleSided" : true,
            "emissiveFactor" : [
                0,
                0,
                0
            ],
            "name" : "Black",
            "pbrMetallicRoughness" : {
                "baseColorFactor" : [
                    0.0010306320618838072,
                    0.0010306320618838072,
                    0.0010306320618838072,
                    1
                ],
                "metallicFactor" : 0,
                "roughnessFactor" : 0.25
            }
        }
    ],
    "meshes" : [
        {
            "name" : "Cylinder.013",
            "primitives" : [
                {
                    "attributes" : {
                        "POSITION" : 0,
                        "NORMAL" : 1,
                        "TEXCOORD_0" : 2
                    },
                    "indices" : 3,
                    "material" : 0
                },
                {
                    "attributes" : {
                        "POSITION" : 4,
                        "NORMAL" : 5,
                        "TEXCOORD_0" : 6
                    },
                    "indices" : 7,
                    "material" : 1
                }
            ]
        }
    ],
    "accessors" : [
        {
            "bufferView" : 0,
            "componentType" : 5126,
            "count" : 8593,
            "max" : [
                2.6039774417877197,
                69.2599105834961,
                2.6040680408477783
            ],
            "min" : [
                -2.6039786338806152,
                1.1795053482055664,
                -2.604067802429199
            ],
            "type" : "VEC3"
        },
        {
            "bufferView" : 1,
            "componentType" : 5126,
            "count" : 8593,
            "type" : "VEC3"
        },
        {
            "bufferView" : 2,
            "componentType" : 5126,
            "count" : 8593,
            "type" : "VEC2"
        },
        {
            "bufferView" : 3,
            "componentType" : 5123,
            "count" : 42285,
            "type" : "SCALAR"
        },
        {
            "bufferView" : 4,
            "componentType" : 5126,
            "count" : 16732,
            "max" : [
                2.557310104370117,
                69.2169189453125,
                2.554168701171875
            ],
            "min" : [
                -2.5573110580444336,
                0.006346401758491993,
                -2.554168462753296
            ],
            "type" : "VEC3"
        },
        {
            "bufferView" : 5,
            "componentType" : 5126,
            "count" : 16732,
            "type" : "VEC3"
        },
        {
            "bufferView" : 6,
            "componentType" : 5126,
            "count" : 16732,
            "type" : "VEC2"
        },
        {
            "bufferView" : 7,
            "componentType" : 5123,
            "count" : 88893,
            "type" : "SCALAR"
        }
    ],
    "bufferViews" : [
        {
            "buffer" : 0,
            "byteLength" : 103116,
            "byteOffset" : 0
        },
        {
            "buffer" : 0,
            "byteLength" : 103116,
            "byteOffset" : 103116
        },
        {
            "buffer" : 0,
            "byteLength" : 68744,
            "byteOffset" : 206232
        },
        {
            "buffer" : 0,
            "byteLength" : 84570,
            "byteOffset" : 274976
        },
        {
            "buffer" : 0,
            "byteLength" : 200784,
            "byteOffset" : 359548
        },
        {
            "buffer" : 0,
            "byteLength" : 200784,
            "byteOffset" : 560332
        },
        {
            "buffer" : 0,
            "byteLength" : 133856,
            "byteOffset" : 761116
        },
        {
            "buffer" : 0,
            "byteLength" : 177786,
            "byteOffset" : 894972
        }
    ],
    "buffers" : [
        {
            "byteLength" : 1072760,
            "uri" : "data:application/octet-stream;base64,"
        }
    ]
}
