{
    "asset" : {
        "generator" : "Khronos glTF Blender I/O v3.2.40",
        "version" : "2.0"
    },
    "scene" : 0,
    "scenes" : [
        {
            "name" : "Scene",
            "nodes" : [
                1
            ]
        }
    ],
    "nodes" : [
        {
            "mesh" : 0,
            "name" : "First Stage - Falcon 9",
            "rotation" : [
                -0.2968554198741913,
                0.6417763829231262,
                -0.29685547947883606,
                0.6417763233184814
            ],
            "scale" : [
                0.09999999403953552,
                0.10252691805362701,
                0.09999999403953552
            ],
            "translation" : [
                -0.07573280483484268,
                -2.246742010116577,
                2.7357802391052246
            ]
        },
        {
            "children" : [
                0
            ],
            "name" : "Falcon 9",
            "rotation" : [
                0.5,
                -0.5,
                0.5000000596046448,
                0.4999999403953552
            ]
        }
    ],
    "materials" : [
        {
            "doubleSided" : true,
            "name" : "White",
            "pbrMetallicRoughness" : {
                "baseColorFactor" : [
                    0.800000011920929,
                    0.800000011920929,
                    0.800000011920929,
                    1
                ],
                "metallicFactor" : 0,
                "roughnessFactor" : 0.5
            }
        },
        {
            "doubleSided" : true,
            "name" : "Black",
            "pbrMetallicRoughness" : {
                "baseColorFactor" : [
                    0.0010306320618838072,
                    0.0010306320618838072,
                    0.0010306320618838072,
                    1
                ],
                "metallicFactor" : 0,
                "roughnessFactor" : 0.25
            }
        }
    ],
    "meshes" : [
        {
            "name" : "Cylinder.013",
            "primitives" : [
                {
                    "attributes" : {
                        "POSITION" : 0,
                        "NORMAL" : 1,
                        "TEXCOORD_0" : 2
                    },
                    "indices" : 3,
                    "material" : 0
                },
                {
                    "attributes" : {
                        "POSITION" : 4,
                        "NORMAL" : 5,
                        "TEXCOORD_0" : 6
                    },
                    "indices" : 7,
                    "material" : 1
                }
            ]
        }
    ],
    "accessors" : [
        {
            "bufferView" : 0,
            "componentType" : 5126,
            "count" : 2605,
            "max" : [
                2.6039774417877197,
                69.26164245605469,
                2.6112539768218994
            ],
            "min" : [
                -2.6108524799346924,
                1.1795053482055664,
                -2.6112537384033203
            ],
            "type" : "VEC3"
        },
        {
            "bufferView" : 1,
            "componentType" : 5126,
            "count" : 2605,
            "type" : "VEC3"
        },
        {
            "bufferView" : 2,
            "componentType" : 5126,
            "count" : 2605,
            "type" : "VEC2"
        },
        {
            "bufferView" : 3,
            "componentType" : 5123,
            "count" : 9615,
            "type" : "SCALAR"
        },
        {
            "bufferView" : 4,
            "componentType" : 5126,
            "count" : 5704,
            "max" : [
                2.557310104370117,
                69.2169189453125,
                2.554168701171875
            ],
            "min" : [
                -2.561591148376465,
                0.005655566696077585,
                -2.561192274093628
            ],
            "type" : "VEC3"
        },
        {
            "bufferView" : 5,
            "componentType" : 5126,
            "count" : 5704,
            "type" : "VEC3"
        },
        {
            "bufferView" : 6,
            "componentType" : 5126,
            "count" : 5704,
            "type" : "VEC2"
        },
        {
            "bufferView" : 7,
            "componentType" : 5123,
            "count" : 25638,
            "type" : "SCALAR"
        }
    ],
    "bufferViews" : [
        {
            "buffer" : 0,
            "byteLength" : 31260,
            "byteOffset" : 0
        },
        {
            "buffer" : 0,
            "byteLength" : 31260,
            "byteOffset" : 31260
        },
        {
            "buffer" : 0,
            "byteLength" : 20840,
            "byteOffset" : 62520
        },
        {
            "buffer" : 0,
            "byteLength" : 19230,
            "byteOffset" : 83360
        },
        {
            "buffer" : 0,
            "byteLength" : 68448,
            "byteOffset" : 102592
        },
        {
            "buffer" : 0,
            "byteLength" : 68448,
            "byteOffset" : 171040
        },
        {
            "buffer" : 0,
            "byteLength" : 45632,
            "byteOffset" : 239488
        },
        {
            "buffer" : 0,
            "byteLength" : 51276,
            "byteOffset" : 285120
        }
    ],
    "buffers" : [
        {
            "byteLength" : 336396,
            "uri" : "data:application/octet-stream;base64,"
        }
    ]
}
